HIERARCHY
ROOT joint_Root
{
	OFFSET 0.0 0.0 0.0
	CHANNELS 6 Xposition Yposition Zposition Zrotation Xrotation Yrotation 
	JOINT Hips
	{
		OFFSET -0.726466 93.3139 -2.00062
		CHANNELS 6 Xposition Yposition Zposition Zrotation Xrotation Yrotation 
		JOINT Spine
		{
			OFFSET 15.7357 0.0 0.0
			CHANNELS 6 Xposition Yposition Zposition Zrotation Xrotation Yrotation 
			JOINT Chest
			{
				OFFSET 8.98455 -0.406207 0.0
				CHANNELS 6 Xposition Yposition Zposition Zrotation Xrotation Yrotation 
				JOINT Neck
				{
					OFFSET 16.3773 0.0 0.0
					CHANNELS 6 Xposition Yposition Zposition Zrotation Xrotation Yrotation 
					JOINT Head
					{
						OFFSET 6.45672 0.0 0.0
						CHANNELS 6 Xposition Yposition Zposition Zrotation Xrotation Yrotation 
						End Site
						{
							OFFSET 0.0 0.0 0.0
						}
					}
				}
				JOINT Shoulder_L
				{
					OFFSET 12.9942 -0.242716 4.98039
					CHANNELS 6 Xposition Yposition Zposition Zrotation Xrotation Yrotation 
					JOINT UpperArm_L
					{
						OFFSET 5.34809 0.0 0.0
						CHANNELS 6 Xposition Yposition Zposition Zrotation Xrotation Yrotation 
						JOINT LowerArm_L
						{
							OFFSET 24.3286 1.87007e-05 0.0
							CHANNELS 6 Xposition Yposition Zposition Zrotation Xrotation Yrotation 
							JOINT Hand_L
							{
								OFFSET 22.2916 0.0 0.0
								CHANNELS 6 Xposition Yposition Zposition Zrotation Xrotation Yrotation 
								End Site
								{
									OFFSET 0.0 0.0 0.0
								}
							}
						}
					}
				}
				JOINT Shoulder_R
				{
					OFFSET 12.9945 -0.242716 -4.98039
					CHANNELS 6 Xposition Yposition Zposition Zrotation Xrotation Yrotation 
					JOINT UpperArm_R
					{
						OFFSET -5.34813 0.0 0.0
						CHANNELS 6 Xposition Yposition Zposition Zrotation Xrotation Yrotation 
						JOINT LowerArm_R
						{
							OFFSET -24.3289 0.000322201 0.0
							CHANNELS 6 Xposition Yposition Zposition Zrotation Xrotation Yrotation 
							JOINT Hand_R
							{
								OFFSET -22.2915 -0.000108084 0.0
								CHANNELS 6 Xposition Yposition Zposition Zrotation Xrotation Yrotation 
								End Site
								{
									OFFSET 0.0 0.0 0.0
								}
							}
						}
					}
				}
			}
		}
		JOINT UpperLeg_L
		{
			OFFSET -2.19248 -6.46944 0.0
			CHANNELS 6 Xposition Yposition Zposition Zrotation Xrotation Yrotation 
			JOINT LowerLeg_L
			{
				OFFSET 39.0811 0.0 -1.23785e-05
				CHANNELS 6 Xposition Yposition Zposition Zrotation Xrotation Yrotation 
				JOINT Foot_L
				{
					OFFSET 40.9854 0.0 -1.26872e-05
					CHANNELS 6 Xposition Yposition Zposition Zrotation Xrotation Yrotation 
					JOINT Toes_L
					{
						OFFSET 11.7543 0.0 0.0
						CHANNELS 6 Xposition Yposition Zposition Zrotation Xrotation Yrotation 
						End Site
						{
							OFFSET 0.0 0.0 0.0
						}
					}
				}
			}
		}
		JOINT UpperLeg_R
		{
			OFFSET -2.19251 6.46944 0.0
			CHANNELS 6 Xposition Yposition Zposition Zrotation Xrotation Yrotation 
			JOINT LowerLeg_R
			{
				OFFSET -39.0811 -0.00228153 -0.0401928
				CHANNELS 6 Xposition Yposition Zposition Zrotation Xrotation Yrotation 
				JOINT Foot_R
				{
					OFFSET -40.9854 0.0 0.0
					CHANNELS 6 Xposition Yposition Zposition Zrotation Xrotation Yrotation 
					JOINT Toes_R
					{
						OFFSET -11.7543 0.0 0.0
						CHANNELS 6 Xposition Yposition Zposition Zrotation Xrotation Yrotation 
						End Site
						{
							OFFSET 0.0 0.0 0.0
						}
					}
				}
			}
		}
	}
}
MOTION
Frames:	5
Frame Time:	0.0333333
0.000000 0.000000 0.000000 0.000000 0.000000 -0.000000 -237.747000 89.006000 183.936000 -39.924600 86.354400 131.537000 15.735700 0.000005 -0.000001 69.155600 79.805500 -67.997400 8.984550 -0.406207 -0.000000 11.427800 -7.160800 3.035270 16.377300 -0.000001 -0.000001 8.566350 -2.433260 0.091768 6.456720 -0.000001 -0.000000 3.838010 2.540680 1.547420 12.994200 -0.242716 4.980390 -88.117800 -5.197730 -70.061900 5.348090 -0.000007 -0.000001 -40.013100 22.934100 -45.924800 24.328600 0.000019 0.000005 5.012600 3.684980 -53.766400 22.291600 -0.000001 0.000005 5.562760 5.598700 -11.264800 12.994500 -0.242716 -4.980390 89.399300 1.105970 -61.489400 -5.348130 -0.000001 -0.000004 -58.955000 27.642600 5.068680 -24.328900 0.000322 -0.000009 3.273140 4.576840 -35.638100 -22.291500 -0.000108 -0.000004 -0.136616 5.576740 -10.038500 -2.192480 -6.469440 -0.000000 -174.387000 -6.317420 0.950605 39.081100 -0.000007 -0.000012 -0.325564 0.560695 30.142000 40.985400 -0.000006 -0.000013 -1.373550 0.568856 -79.653600 11.754300 -0.000000 0.000003 -0.000035 -0.000416 -16.593800 -2.192510 6.469440 -0.000001 -176.677000 24.630400 153.474000 -39.081100 -0.002282 -0.040193 0.012504 -0.042744 12.107100 -40.985400 0.000008 0.000006 -8.074710 2.586410 -52.082900 -11.754300 -0.000006 -0.000006 -0.020080 -0.167730 -23.426000
0.000000 0.000000 0.000000 0.000000 0.000000 -0.000000 -234.535000 88.261300 184.554000 -52.051300 85.639400 143.213000 15.735700 0.000005 -0.000001 66.945200 79.734200 -65.518500 8.984550 -0.406207 -0.000000 11.306200 -7.934330 3.642400 16.377300 -0.000001 -0.000001 8.325460 -2.668560 0.185760 6.456720 -0.000001 -0.000000 3.574700 2.535350 1.458360 12.994200 -0.242716 4.980390 -88.078000 -5.356480 -70.227600 5.348090 -0.000007 -0.000001 -39.855700 22.178800 -46.239700 24.328600 0.000019 0.000005 5.430150 3.765600 -55.359600 22.291600 -0.000001 0.000005 5.489690 5.598300 -11.241400 12.994500 -0.242716 -4.980390 89.620900 0.681781 -60.919700 -5.348130 -0.000001 -0.000004 -58.890200 25.746500 6.231600 -24.328900 0.000322 -0.000009 3.057450 4.201180 -36.106100 -22.291500 -0.000108 -0.000004 -0.083580 5.575870 -9.992970 -2.192480 -6.469440 -0.000000 -173.368000 -6.309000 3.225480 39.081100 -0.000007 -0.000012 -0.349026 0.622203 29.291100 40.985400 -0.000006 -0.000013 -1.868820 1.949360 -81.442000 11.754300 -0.000000 0.000003 -0.000040 -0.000468 -16.595800 -2.192510 6.469440 -0.000001 -174.852000 26.076300 151.129000 -39.081100 -0.002282 -0.040193 0.011053 -0.038242 11.407500 -40.985400 0.000008 0.000006 -8.389900 1.287300 -52.376800 -11.754300 -0.000006 -0.000006 -0.020644 -0.170831 -23.553800
0.000000 0.000000 0.000000 0.000000 0.000000 -0.000000 -230.848000 87.434300 185.395000 -61.510300 84.621700 152.374000 15.735700 0.000005 -0.000001 64.614700 79.566200 -62.880800 8.984550 -0.406207 -0.000000 11.322000 -8.823390 4.347980 16.377300 -0.000001 -0.000001 7.960380 -2.607040 0.210411 6.456720 -0.000001 -0.000000 3.334070 2.724920 1.326830 12.994200 -0.242716 4.980390 -88.039800 -5.449100 -70.180400 5.348090 -0.000007 -0.000001 -40.501900 22.018700 -45.421000 24.328600 0.000019 0.000005 5.281560 3.421060 -57.157700 22.291600 -0.000001 0.000005 5.729510 5.601260 -11.417500 12.994500 -0.242716 -4.980390 89.749500 0.443785 -60.557600 -5.348130 -0.000001 -0.000004 -58.656900 24.662000 6.713070 -24.328900 0.000322 -0.000009 2.801610 3.765460 -36.703000 -22.291500 -0.000108 -0.000004 0.132116 5.574730 -9.933050 -2.192480 -6.469440 -0.000000 -172.117000 -5.751200 6.650810 39.081100 -0.000007 -0.000012 -0.320975 0.629173 27.029300 40.985400 -0.000006 -0.000013 -2.603570 3.368470 -82.840100 11.754300 -0.000000 0.000003 -0.000018 -0.000230 -16.586600 -2.192510 6.469440 -0.000001 -173.191000 27.016100 147.723000 -39.081100 -0.002282 -0.040193 -0.011475 0.048724 16.898900 -40.985400 0.000008 0.000006 -5.819130 -1.045660 -54.797400 -11.754300 -0.000006 -0.000006 -0.020676 -0.171007 -23.561100
0.000000 0.000000 0.000000 0.000000 0.000000 -0.000000 -226.916000 86.716100 186.447000 -63.160200 83.202800 153.315000 15.735700 0.000005 -0.000001 62.872400 79.656000 -60.586700 8.984550 -0.406207 -0.000000 10.943300 -9.301910 5.470000 16.377300 -0.000001 -0.000001 7.930020 -2.791760 0.375731 6.456720 -0.000001 -0.000000 3.014390 2.806880 1.066590 12.994200 -0.242716 4.980390 -88.202100 -5.059760 -70.408800 5.348090 -0.000007 -0.000001 -41.208100 22.696400 -43.788900 24.328600 0.000019 0.000005 5.112510 3.117770 -58.703700 22.291600 -0.000001 0.000005 5.877400 5.605270 -11.662500 12.994500 -0.242716 -4.980390 89.602800 0.695230 -60.258800 -5.348130 -0.000001 -0.000004 -58.057900 24.174600 6.926990 -24.328900 0.000322 -0.000009 2.773740 3.652680 -37.263300 -22.291500 -0.000108 -0.000004 0.223208 5.575040 -9.949260 -2.192480 -6.469440 -0.000000 -170.209000 -5.862180 9.751200 39.081100 -0.000007 -0.000012 -0.011845 0.025902 24.574200 40.985400 -0.000006 -0.000013 -0.445976 4.321500 -83.588800 11.754300 -0.000000 0.000003 -0.024761 -0.047316 -17.379500 -2.192510 6.469440 -0.000001 -170.784000 26.593900 143.590000 -39.081100 -0.002282 -0.040193 0.066892 -0.138955 24.586800 -40.985400 0.000008 0.000006 6.194710 -1.211970 -53.015900 -11.754300 -0.000006 -0.000006 -0.024854 -0.192827 -24.461700
0.000000 0.000000 0.000000 0.000000 0.000000 -0.000000 -222.553000 86.150400 187.678000 -60.201000 81.427100 149.766000 15.735700 0.000005 -0.000001 61.753300 79.898300 -58.697300 8.984550 -0.406207 -0.000000 10.396400 -9.429110 6.979120 16.377300 -0.000001 -0.000001 7.937060 -3.170500 0.396275 6.456720 -0.000001 -0.000000 2.886920 2.640090 0.898261 12.994200 -0.242716 4.980390 -88.501000 -4.270670 -70.637900 5.348090 -0.000007 -0.000001 -41.881300 24.437800 -41.377000 24.328600 0.000019 0.000005 5.789120 3.372300 -59.876400 22.291600 -0.000001 0.000005 5.662960 5.606850 -11.760200 12.994500 -0.242716 -4.980390 89.297500 1.224140 -60.148200 -5.348130 -0.000001 -0.000004 -57.543000 23.812900 7.106160 -24.328900 0.000322 -0.000009 2.795220 3.686480 -37.222800 -22.291500 -0.000108 -0.000004 0.382554 5.576070 -10.003000 -2.192480 -6.469440 -0.000000 -167.060000 -5.053570 9.942660 39.081100 -0.000007 -0.000012 -0.047178 0.093312 26.820900 40.985400 -0.000006 -0.000013 -1.717930 6.441870 -79.607500 11.754300 -0.000000 0.000003 -1.733140 -1.907710 -23.711700 -2.192510 6.469440 -0.000001 -171.463000 23.311000 142.390000 -39.081100 -0.002282 -0.040193 0.078317 -0.128037 30.365600 -40.985400 0.000008 0.000006 4.791160 -3.747620 -47.656900 -11.754300 -0.000006 -0.000006 -0.022808 -0.182373 -24.029900
